{
  "accessors": [
    {
      "bufferView": 2,
      "componentType": 5126,
      "count": 599,
      "max": [0.6212890148162842, 1.0, 0.2204580008983612],
      "min": [-0.6212890148162842, -1.0, -0.2204580008983612],
      "type": "VEC3"
    },
    {
      "bufferView": 2,
      "byteOffset": 7188,
      "componentType": 5126,
      "count": 599,
      "max": [1.0, 0.8165299892425537, 1.0],
      "min": [-1.0, -0.8165299892425537, -1.0],
      "type": "VEC3"
    },
    {
      "bufferView": 3,
      "componentType": 5126,
      "count": 599,
      "max": [1.0, 1.0, 1.0, 1.0],
      "min": [-1.0, -1.0, -1.0, 1.0],
      "type": "VEC4"
    },
    {
      "bufferView": 1,
      "componentType": 5126,
      "count": 599,
      "max": [0.9900000095367432, 0.9900000095367432],
      "min": [0.009999999776482582, 0.06073400005698204],
      "type": "VEC2"
    },
    {
      "bufferView": 0,
      "componentType": 5125,
      "count": 1704,
      "type": "SCALAR"
    },
    {
      "bufferView": 2,
      "byteOffset": 14376,
      "componentType": 5126,
      "count": 235,
      "max": [0.3077529966831207, -0.8425660133361816, 0.19743800163269043],
      "min": [-0.3077380061149597, -0.8768519759178162, 0.170181006193161],
      "type": "VEC3"
    },
    {
      "bufferView": 2,
      "byteOffset": 17196,
      "componentType": 5126,
      "count": 235,
      "max": [0.9911026358604431, 0.9911026358604431, 0.8355717062950134],
      "min": [-0.9911026358604431, -0.9911026358604431, -0.6956043839454651],
      "type": "VEC3"
    },
    {
      "bufferView": 3,
      "byteOffset": 9584,
      "componentType": 5126,
      "count": 235,
      "max": [1.0, 0.9864664673805237, 0.9448817372322083, 1.0],
      "min": [-1.0, -0.9755022525787354, -0.9489132165908813, 1.0],
      "type": "VEC4"
    },
    {
      "bufferView": 1,
      "byteOffset": 4792,
      "componentType": 5126,
      "count": 235,
      "max": [0.7469350099563599, 0.9998430013656616],
      "min": [0.000155999994603917, 0.000155999994603917],
      "type": "VEC2"
    },
    {
      "bufferView": 0,
      "byteOffset": 6816,
      "componentType": 5125,
      "count": 1086,
      "type": "SCALAR"
    }
  ],
  "asset": {
    "extras": {
      "author": "Fenes.Octavian.Romulus (https://sketchfab.com/Fenes.Octavian)",
      "license": "CC-BY-4.0 (http://creativecommons.org/licenses/by/4.0/)",
      "source": "https://sketchfab.com/3d-models/bookshelf-964ae9ee60394ca3bad68d5d4a4c6b04",
      "title": "Bookshelf"
    },
    "generator": "Sketchfab-12.68.0",
    "version": "2.0"
  },
  "bufferViews": [
    {
      "buffer": 0,
      "byteLength": 11160,
      "name": "floatBufferViews",
      "target": 34963
    },
    {
      "buffer": 0,
      "byteLength": 6672,
      "byteOffset": 11160,
      "byteStride": 8,
      "name": "floatBufferViews",
      "target": 34962
    },
    {
      "buffer": 0,
      "byteLength": 20016,
      "byteOffset": 17832,
      "byteStride": 12,
      "name": "floatBufferViews",
      "target": 34962
    },
    {
      "buffer": 0,
      "byteLength": 13344,
      "byteOffset": 37848,
      "byteStride": 16,
      "name": "floatBufferViews",
      "target": 34962
    }
  ],
  "buffers": [
    {
      "byteLength": 51192,
      "uri": "scene.bin"
    }
  ],
  "images": [
    {
      "uri": "textures/Knobs_baseColor.jpeg"
    },
    {
      "uri": "textures/Knobs_metallicRoughness.png"
    },
    {
      "uri": "textures/Knobs_normal.png"
    },
    {
      "uri": "textures/Bookshelf_baseColor.jpeg"
    },
    {
      "uri": "textures/Bookshelf_metallicRoughness.png"
    },
    {
      "uri": "textures/Bookshelf_normal.png"
    }
  ],
  "materials": [
    {
      "doubleSided": true,
      "name": "Knobs",
      "normalTexture": {
        "index": 2
      },
      "occlusionTexture": {
        "index": 1
      },
      "pbrMetallicRoughness": {
        "baseColorTexture": {
          "index": 0
        },
        "metallicRoughnessTexture": {
          "index": 1
        }
      }
    },
    {
      "doubleSided": true,
      "name": "Bookshelf",
      "normalTexture": {
        "index": 5
      },
      "occlusionTexture": {
        "index": 4
      },
      "pbrMetallicRoughness": {
        "baseColorTexture": {
          "index": 3
        },
        "metallicRoughnessTexture": {
          "index": 4
        }
      }
    }
  ],
  "meshes": [
    {
      "name": "defaultMaterial",
      "primitives": [
        {
          "attributes": {
            "NORMAL": 1,
            "POSITION": 0,
            "TANGENT": 2,
            "TEXCOORD_0": 3
          },
          "indices": 4,
          "material": 1,
          "mode": 4
        }
      ]
    },
    {
      "name": "defaultMaterial",
      "primitives": [
        {
          "attributes": {
            "NORMAL": 6,
            "POSITION": 5,
            "TANGENT": 7,
            "TEXCOORD_0": 8
          },
          "indices": 9,
          "material": 0,
          "mode": 4
        }
      ]
    }
  ],
  "nodes": [
    {
      "children": [1],
      "matrix": [
        1.0, 0.0, 0.0, 0.0, 0.0, 2.220446049250313e-16, -1.0, 0.0, 0.0, 1.0,
        2.220446049250313e-16, 0.0, 0.0, 0.0, 0.0, 1.0
      ],
      "name": "Sketchfab_model"
    },
    {
      "children": [2, 4],
      "matrix": [
        1.0, 0.0, 0.0, 0.0, 0.0, -4.371139006309477e-8, 0.999999999999999, 0.0,
        0.0, -0.999999999999999, -4.371139006309477e-8, 0.0, 0.0, 0.0, 0.0, 1.0
      ],
      "name": "Collada visual scene group"
    },
    {
      "children": [3],
      "name": "Cube.003"
    },
    {
      "mesh": 0,
      "name": "defaultMaterial"
    },
    {
      "children": [5],
      "name": "Knobs_Cylinder.002"
    },
    {
      "mesh": 1,
      "name": "defaultMaterial"
    }
  ],
  "samplers": [
    {
      "magFilter": 9729,
      "minFilter": 9987,
      "wrapS": 10497,
      "wrapT": 10497
    }
  ],
  "scene": 0,
  "scenes": [
    {
      "name": "Sketchfab_Scene",
      "nodes": [0]
    }
  ],
  "textures": [
    {
      "sampler": 0,
      "source": 0
    },
    {
      "sampler": 0,
      "source": 1
    },
    {
      "sampler": 0,
      "source": 2
    },
    {
      "sampler": 0,
      "source": 3
    },
    {
      "sampler": 0,
      "source": 4
    },
    {
      "sampler": 0,
      "source": 5
    }
  ]
}
